<?xml version="1.0" encoding="UTF-8"?>
<!DOCTYPE svg PUBLIC "-//W3C//DTD SVG 1.1//EN" "http://www.w3.org/Graphics/SVG/1.1/DTD/svg11.dtd">
<!-- Creator: CorelDRAW 2020 (64 Bit) -->
<svg xmlns="http://www.w3.org/2000/svg" xml:space="preserve" width="91.44mm" height="91.44mm" version="1.1" style="shape-rendering:geometricPrecision; text-rendering:geometricPrecision; image-rendering:optimizeQuality; fill-rule:evenodd; clip-rule:evenodd"
viewBox="0 0 9144 9144"
 xmlns:xlink="http://www.w3.org/1999/xlink"
 xmlns:xodm="http://www.corel.com/coreldraw/odm/2003">
 <defs>
  <style type="text/css">
   <![CDATA[
    .str0 {stroke:#373435;stroke-width:20;stroke-miterlimit:22.9256}
    .fil3 {fill:none;fill-rule:nonzero}
    .fil0 {fill:#272727}
    .fil1 {fill:#272727;fill-rule:nonzero}
    .fil2 {fill:#F9F9F9;fill-rule:nonzero}
   ]]>
  </style>
    <clipPath id="id0" style="clip-rule:nonzero">
     <path d="M1633.64 2935.44l2868.96 0 0 -398.47 -2868.96 0 0 398.47z"/>
    </clipPath>
 </defs>
 <g id="Camada_x0020_1">
  <metadata id="CorelCorpID_0Corel-Layer"/>
  <polygon class="fil0 str0" points="1363.16,2142.07 5757.33,2142.07 4775.83,2692.4 5757.33,3251.2 1363.16,3251.2 "/>
  <g id="_2095113850752">
   <polygon class="fil1" points="1358.2,2290.22 4653.06,2290.22 4653.06,3136.89 1358.2,3136.89 "/>
   <g>
   </g>
   <g style="clip-path:url(#id0)">
    <g id="_2095113852768">
     <polygon class="fil2" points="1713.14,2775.45 1633.64,2775.45 1633.64,2854.95 1713.14,2854.95 "/>
     <path class="fil2" d="M1832.39 2934.45c44.43,0 79.5,-35.07 79.5,-79.5l-198.74 0 0 79.5 119.24 0z"/>
     <path class="fil2" d="M1792.65 2695.96c-44.43,0 -79.5,35.07 -79.5,79.49l317.99 0c44.43,0 79.5,-35.07 79.5,-79.49l-79.5 0 -238.49 0z"/>
     <path class="fil2" d="M1991.38 2536.96c-44.43,0 -79.5,35.07 -79.5,79.5l198.75 0 0 -79.5 -119.25 0z"/>
     <polygon class="fil2" points="2190.11,2616.46 2110.61,2616.46 2110.61,2695.96 2190.11,2695.96 "/>
     <polygon class="fil2" points="2508.12,2824.56 2508.12,2646.86 2697.51,2646.86 2697.51,2686.61 2557.22,2686.61 2557.22,2714.67 2674.13,2714.67 2674.13,2754.41 2557.22,2754.41 2557.22,2784.81 2697.51,2784.81 2697.51,2824.56 "/>
     <polygon class="fil2" points="2508.12,2824.56 2508.12,2646.86 2697.51,2646.86 2697.51,2686.61 2557.22,2686.61 2557.22,2714.67 2674.13,2714.67 2674.13,2754.41 2557.22,2754.41 2557.22,2784.81 2697.51,2784.81 2697.51,2824.56 "/>
     <polygon class="fil2" points="2753.64,2824.56 2753.64,2646.86 2802.74,2646.86 2802.74,2782.47 2919.65,2782.47 2919.65,2824.56 "/>
     <polygon class="fil2" points="2753.64,2824.56 2753.64,2646.86 2802.74,2646.86 2802.74,2782.47 2919.65,2782.47 2919.65,2824.56 "/>
     <path class="fil2" d="M2987.43 2803.51c-21.03,-16.36 -30.39,-39.74 -30.39,-67.8 0,-28.06 9.36,-51.44 30.39,-67.81 21.06,-16.37 49.11,-25.72 84.2,-25.72 35.06,0 63.11,9.35 84.16,25.72 21.05,16.37 30.4,39.75 30.4,67.81 0,28.06 -9.35,51.44 -30.4,67.8 -21.05,16.37 -49.1,25.73 -84.16,25.73 -35.09,0 -63.14,-9.36 -84.2,-25.73zm130.94 -28.06c11.7,-9.34 16.37,-23.37 16.37,-39.74 0,-16.37 -4.67,-28.06 -16.37,-37.41 -11.68,-9.36 -28.05,-14.03 -46.74,-14.03 -18.71,0 -35.09,4.67 -46.77,14.03 -11.7,9.35 -16.37,23.38 -16.37,37.41 0,14.03 4.67,28.06 16.37,39.74 11.68,9.36 28.06,14.03 46.77,14.03 18.69,0 35.06,-4.67 46.74,-14.03z"/>
     <path class="fil2" d="M2987.43 2803.51c-21.03,-16.36 -30.39,-39.74 -30.39,-67.8 0,-28.06 9.36,-51.44 30.39,-67.81 21.06,-16.37 49.11,-25.72 84.2,-25.72 35.06,0 63.11,9.35 84.16,25.72 21.05,16.37 30.4,39.75 30.4,67.81 0,28.06 -9.35,51.44 -30.4,67.8 -21.05,16.37 -49.1,25.73 -84.16,25.73 -35.09,0 -63.14,-9.36 -84.2,-25.73zm130.94 -28.06c11.7,-9.34 16.37,-23.37 16.37,-39.74 0,-16.37 -4.67,-28.06 -16.37,-37.41 -11.68,-9.36 -28.05,-14.03 -46.74,-14.03 -18.71,0 -35.09,4.67 -46.77,14.03 -11.7,9.35 -16.37,23.38 -16.37,37.41 0,14.03 4.67,28.06 16.37,39.74 11.68,9.36 28.06,14.03 46.77,14.03 18.69,0 35.06,-4.67 46.74,-14.03z"/>
     <path class="fil2" d="M3258.68 2803.51c-18.71,-16.36 -28.07,-39.74 -28.07,-67.8 0,-28.06 9.36,-51.44 30.4,-67.81 21.05,-16.37 49.1,-25.72 81.84,-25.72 44.42,0 79.5,16.37 98.2,44.43l-35.07 23.37c-16.36,-18.69 -37.4,-30.39 -63.13,-30.39 -18.71,0 -35.08,4.68 -46.76,14.03 -11.7,9.35 -16.37,23.38 -16.37,37.41 0,32.74 23.38,53.78 63.13,53.78 21.04,0 44.42,-9.36 58.45,-25.72l-51.44 0 0 -32.74 100.55 0 0 98.21 -39.76 0 0 -23.38c-16.36,18.7 -39.74,28.06 -72.48,28.06 -32.73,0 -60.79,-9.36 -79.49,-25.73z"/>
     <path class="fil2" d="M3258.68 2803.51c-18.71,-16.36 -28.07,-39.74 -28.07,-67.8 0,-28.06 9.36,-51.44 30.4,-67.81 21.05,-16.37 49.1,-25.72 81.84,-25.72 44.42,0 79.5,16.37 98.2,44.43l-35.07 23.37c-16.36,-18.69 -37.4,-30.39 -63.13,-30.39 -18.71,0 -35.08,4.68 -46.76,14.03 -11.7,9.35 -16.37,23.38 -16.37,37.41 0,32.74 23.38,53.78 63.13,53.78 21.04,0 44.42,-9.36 58.45,-25.72l-51.44 0 0 -32.74 100.55 0 0 98.21 -39.76 0 0 -23.38c-16.36,18.7 -39.74,28.06 -72.48,28.06 -32.73,0 -60.79,-9.36 -79.49,-25.73z"/>
     <path class="fil2" d="M3506.53 2824.56l0 -177.7 140.29 0c18.69,0 35.06,4.67 46.76,16.37 11.69,11.69 18.7,25.71 18.7,42.08 0,16.37 -4.67,30.4 -18.7,39.75 -11.7,9.35 -25.72,16.37 -44.42,16.37l67.8 63.13 -67.8 0 -60.8 -63.13 -35.07 0 0 63.13 -46.76 0zm49.1 -137.95l0 37.4 79.49 0c16.37,0 25.72,-7.01 25.72,-18.7 0,-11.69 -9.35,-18.7 -25.72,-18.7l-79.49 0z"/>
     <path class="fil2" d="M3506.53 2824.56l0 -177.7 140.29 0c18.69,0 35.06,4.67 46.76,16.37 11.69,11.69 18.7,25.71 18.7,42.08 0,16.37 -4.67,30.4 -18.7,39.75 -11.7,9.35 -25.72,16.37 -44.42,16.37l67.8 63.13 -67.8 0 -60.8 -63.13 -35.07 0 0 63.13 -46.76 0zm49.1 -137.95l0 37.4 79.49 0c16.37,0 25.72,-7.01 25.72,-18.7 0,-11.69 -9.35,-18.7 -25.72,-18.7l-79.49 0z"/>
     <path class="fil2" d="M3784.78 2803.51c-21.05,-16.36 -30.39,-39.74 -30.39,-67.8 0,-28.06 9.34,-51.44 30.39,-67.81 21.04,-16.37 49.09,-25.72 84.18,-25.72 35.06,0 63.13,9.35 84.17,25.72 21.04,16.37 30.39,39.75 30.39,67.81 0,28.06 -9.35,51.44 -30.39,67.8 -21.04,16.37 -49.11,25.73 -84.17,25.73 -35.09,0 -63.14,-9.36 -84.18,-25.73zm130.94 -28.06c11.68,-9.34 16.37,-23.37 16.37,-39.74 0,-16.37 -4.69,-28.06 -16.37,-37.41 -11.7,-9.36 -28.07,-14.03 -46.76,-14.03 -18.72,0 -35.09,4.67 -46.77,14.03 -11.7,9.35 -16.37,23.38 -16.37,37.41 0,14.03 4.67,28.06 16.37,39.74 11.68,9.36 28.05,14.03 46.77,14.03 18.69,0 35.06,-4.67 46.76,-14.03z"/>
     <path class="fil2" d="M3784.78 2803.51c-21.05,-16.36 -30.39,-39.74 -30.39,-67.8 0,-28.06 9.34,-51.44 30.39,-67.81 21.04,-16.37 49.09,-25.72 84.18,-25.72 35.06,0 63.13,9.35 84.17,25.72 21.04,16.37 30.39,39.75 30.39,67.81 0,28.06 -9.35,51.44 -30.39,67.8 -21.04,16.37 -49.11,25.73 -84.17,25.73 -35.09,0 -63.14,-9.36 -84.18,-25.73zm130.94 -28.06c11.68,-9.34 16.37,-23.37 16.37,-39.74 0,-16.37 -4.69,-28.06 -16.37,-37.41 -11.7,-9.36 -28.07,-14.03 -46.76,-14.03 -18.72,0 -35.09,4.67 -46.77,14.03 -11.7,9.35 -16.37,23.38 -16.37,37.41 0,14.03 4.67,28.06 16.37,39.74 11.68,9.36 28.05,14.03 46.77,14.03 18.69,0 35.06,-4.67 46.76,-14.03z"/>
     <path class="fil2" d="M4238.38 2646.86l0 100.54c0,53.78 -35.06,81.84 -102.88,81.84 -67.81,0 -102.87,-28.06 -102.87,-81.84l0 -100.54 49.09 0 0 95.86c0,30.4 18.71,46.76 53.78,46.76 35.08,0 53.79,-16.36 53.79,-46.76l0 -95.86 49.09 0z"/>
     <path class="fil2" d="M4238.38 2646.86l0 100.54c0,53.78 -35.06,81.84 -102.88,81.84 -67.81,0 -102.87,-28.06 -102.87,-81.84l0 -100.54 49.09 0 0 95.86c0,30.4 18.71,46.76 53.78,46.76 35.08,0 53.79,-16.36 53.79,-46.76l0 -95.86 49.09 0z"/>
     <path class="fil2" d="M4345.94 2773.12l0 51.44 -49.11 0 0 -177.7 133.27 0c44.42,0 72.48,23.38 72.48,63.12 0,18.72 -7.01,35.08 -18.7,46.77 -11.7,11.69 -30.39,16.37 -51.45,16.37l-86.49 0zm0 -86.51l0 46.76 74.81 0c21.04,0 30.4,-9.36 30.4,-23.39 0,-14.02 -11.7,-23.37 -30.4,-23.37l-74.81 0z"/>
     <path class="fil2" d="M4345.94 2773.12l0 51.44 -49.11 0 0 -177.7 133.27 0c44.42,0 72.48,23.38 72.48,63.12 0,18.72 -7.01,35.08 -18.7,46.77 -11.7,11.69 -30.39,16.37 -51.45,16.37l-86.49 0zm0 -86.51l0 46.76 74.81 0c21.04,0 30.4,-9.36 30.4,-23.39 0,-14.02 -11.7,-23.37 -30.4,-23.37l-74.81 0z"/>
    </g>
   </g>
   <polygon class="fil3" points="1633.64,2935.44 4502.6,2935.44 4502.6,2536.97 1633.64,2536.97 "/>
  </g>
 </g>
</svg>
